<?xml version="1.0" encoding="UTF-8"?>
<svg xmlns="http://www.w3.org/2000/svg" xmlns:xlink="http://www.w3.org/1999/xlink" viewBox="0 0 1691.99 1080">
  <defs>
    <style>
      .cls-1 {
        font-size: 63.61px;
      }

      .cls-1, .cls-2, .cls-3, .cls-4 {
        font-family: PalatinoLinotype-Roman, 'Palatino Linotype';
      }

      .cls-5, .cls-6 {
        fill: #fff;
      }

      .cls-7 {
        letter-spacing: -.08em;
      }

      .cls-2 {
        font-size: 108.84px;
      }

      .cls-8 {
        letter-spacing: -.08em;
      }

      .cls-9 {
        clip-path: url(#clippath-2);
      }

      .cls-10 {
        letter-spacing: -.02em;
      }

      .cls-11 {
        clip-path: url(#clippath-6);
      }

      .cls-12 {
        clip-path: url(#clippath-7);
      }

      .cls-13 {
        clip-path: url(#clippath-1);
      }

      .cls-14 {
        clip-path: url(#clippath-4);
      }

      .cls-15 {
        letter-spacing: -.01em;
      }

      .cls-16 {
        letter-spacing: -.07em;
      }

      .cls-17 {
        letter-spacing: -.02em;
      }

      .cls-18 {
        clip-path: url(#clippath);
      }

      .cls-19 {
        letter-spacing: -.08em;
      }

      .cls-3 {
        font-size: 106.02px;
      }

      .cls-20 {
        fill: none;
      }

      .cls-6 {
        stroke: #000;
        stroke-miterlimit: 10;
      }

      .cls-21 {
        clip-path: url(#clippath-3);
      }

      .cls-4 {
        font-size: 181.4px;
      }

      .cls-22 {
        clip-path: url(#clippath-5);
      }

      .cls-23 {
        letter-spacing: -.03em;
      }

      .cls-24 {
        font-family: CopperplateGothic-Light, 'Copperplate Gothic Light';
        font-size: 17.67px;
      }
    </style>
    <clipPath id="clippath">
      <rect class="cls-20" x="296.32" y="165.81" width="51.24" height="100.27"/>
    </clipPath>
    <clipPath id="clippath-1">
      <rect class="cls-20" x="323.53" y="214.73" width="100.27" height="51.24" transform="translate(-67.56 292.42) rotate(-39.48)"/>
    </clipPath>
    <clipPath id="clippath-2">
      <polygon class="cls-20" points="380.91 157.99 358.98 204.48 346.76 204.48 346.76 157.99 380.91 157.99"/>
    </clipPath>
    <clipPath id="clippath-3">
      <polygon class="cls-20" points="380.91 157.99 358.98 204.48 366.75 213.91 402.63 184.35 380.91 157.99"/>
    </clipPath>
    <clipPath id="clippath-4">
      <rect class="cls-20" x="813.35" y="333.25" width="37.2" height="68.6"/>
    </clipPath>
    <clipPath id="clippath-5">
      <rect class="cls-20" x="837.59" y="363.86" width="68.6" height="37.2" transform="translate(11.55 790.23) rotate(-49.04)"/>
    </clipPath>
    <clipPath id="clippath-6">
      <polygon class="cls-20" points="870.46 325.36 857.91 358.97 849.55 358.97 849.55 325.36 870.46 325.36"/>
    </clipPath>
    <clipPath id="clippath-7">
      <polygon class="cls-20" points="870.46 325.36 857.91 358.97 864.22 364.45 886.25 339.06 870.46 325.36"/>
    </clipPath>
  </defs>
  <g id="LOGO_1" data-name="LOGO 1">
    <rect class="cls-6" x=".5" y="99.89" width="616.55" height="616.55"/>
    <g id="Logo">
      <g>
        <circle class="cls-5" cx="256.42" cy="425.99" r="46.83"/>
        <path d="M299.22,446.18c-18.54,38.5-73.55,36.31-88.98-3.62-9.62-25.15,4.08-54.19,29.61-62.75,40.64-13.48,77.3,27.59,59.37,66.38h0Zm-.9-.43c10.86-22.82,.54-50.58-22.56-60.75-21.94-10.13-49.44,.14-59.4,22.08-10.6,21.64-1.04,49.39,20.73,59.89,22.53,11.36,50.53,1.68,61.23-21.21h0Z"/>
      </g>
      <g>
        <circle class="cls-5" cx="241.26" cy="350.45" r="46.83"/>
        <path d="M284.06,370.64c-18.54,38.5-73.55,36.31-88.98-3.62-9.62-25.15,4.08-54.19,29.61-62.75,40.64-13.48,77.3,27.59,59.37,66.38h0Zm-.9-.43c10.86-22.82,.54-50.58-22.56-60.75-21.94-10.13-49.44,.14-59.4,22.08-10.6,21.64-1.04,49.39,20.73,59.89,22.53,11.36,50.53,1.68,61.23-21.21h0Z"/>
      </g>
      <g>
        <circle class="cls-5" cx="323.51" cy="387.31" r="46.83"/>
        <path d="M366.31,407.5c-18.54,38.5-73.55,36.31-88.98-3.62-9.62-25.15,4.08-54.19,29.61-62.75,40.64-13.48,77.3,27.59,59.37,66.38h0Zm-.9-.43c10.86-22.82,.54-50.58-22.56-60.75-21.94-10.13-49.44,.14-59.4,22.08-10.6,21.64-1.04,49.39,20.73,59.89,22.53,11.36,50.53,1.68,61.23-21.21h0Z"/>
      </g>
      <g>
        <circle class="cls-5" cx="245.28" cy="283.96" r="46.83"/>
        <path d="M288.08,304.16c-18.54,38.5-73.55,36.31-88.98-3.62-9.62-25.15,4.08-54.19,29.61-62.75,40.64-13.48,77.3,27.59,59.37,66.38h0Zm-.9-.43c10.86-22.82,.54-50.58-22.56-60.75-21.94-10.13-49.44,.14-59.4,22.08-10.6,21.64-1.04,49.39,20.73,59.89,22.53,11.36,50.53,1.68,61.23-21.21h0Z"/>
      </g>
      <g>
        <circle class="cls-5" cx="371.52" cy="343.53" r="46.83"/>
        <path d="M414.32,363.72c-18.54,38.5-73.55,36.31-88.98-3.62-9.62-25.15,4.08-54.19,29.61-62.75,40.64-13.48,77.3,27.59,59.37,66.38h0Zm-.9-.43c10.86-22.82,.54-50.58-22.56-60.75-21.94-10.13-49.44,.14-59.4,22.08-10.6,21.64-1.04,49.39,20.73,59.89,22.53,11.36,50.53,1.68,61.23-21.21h0Z"/>
      </g>
      <g>
        <circle class="cls-5" cx="308.78" cy="312.95" r="50.36"/>
        <path d="M354.77,334.65c-19.91,41.34-78.98,38.95-95.5-3.94-10.29-26.96,4.39-58.07,31.74-67.27,43.61-14.52,83.01,29.56,63.76,71.21h0Zm-.9-.43c11.7-24.56,.6-54.47-24.25-65.45-11.63-5.26-25.22-5.63-37.1-1.11-31.79,11.72-41.99,52.46-19.63,77.87,23.14,26.42,65.92,20.49,80.97-11.31h0Z"/>
      </g>
      <g>
        <g id="_Repetición_de_espejo_" data-name="&amp;lt;Repetición de espejo&amp;gt;">
          <g class="cls-18">
            <path d="M324.35,251.25c-1.49-1.99-3.33-2.65-5.15-4.05-1.7-1.25-3.17-2.77-4.56-4.34-15.61-19.15-19.65-47.49-17.96-71.52,.2-1.46,0-2.99-.1-4.47,.92-3.6,6.84,3.06,7.95,4.13,22.93,24.97,31,61.26,24.85,94.12,4.03-24.71,.36-50.71-11.76-72.68-5.17-9.03-11.23-18.25-19.69-24.38,0,0-.23-.15-.23-.15-.05-.04-.14-.07,0-.07,.03,0,.39,0,.65-.36,.06-.09,.1-.18,.11-.23,.02-.04,.03-.18,.03-.15,0,0-.03,.09-.03,.09l-.11,.38c-.43,1.24-.8,2.53-.86,3.83-.38,4.15-.58,8.32-.56,12.49-.09,20.56,6.8,52.87,25.02,64.8,.92,.46,1.97,.78,3.14,.34,0,0-.76,2.22-.76,2.22h0Z"/>
            <path d="M328.6,265.62c1.28-1.37,2.21-4.11,3.07-5.78,6.25-13.93,11.26-28.56,13.65-43.66,2.69-16.8,1.64-36.21-10.98-48.89,0,0,.83-.21,.83-.21-1.17,3.53-2.24,7.1-3.27,10.68-2.04,7.16-3.87,14.41-5.04,21.77-.47,3.65-1.16,7.47-.22,11.1-.57-1.79-.55-3.69-.5-5.55,.98-13.32,4.82-26.24,8.31-39.07,24.34,22.86,9.55,67.89-2.3,94.05-.7,1.68-2.25,4.23-2.65,6.04,0,0-.88-.47-.88-.47h0Z"/>
          </g>
        </g>
        <g id="_Repetición_de_espejo_-2" data-name="&amp;lt;Repetición de espejo&amp;gt;">
          <g class="cls-13">
            <path d="M346.12,258.94c.86,2.23,3.23,2.63,5.25,3.08,6.14,1.22,12.49,.69,18.6-.56,16.34-3.48,31.45-11.71,44.34-22.2,3.23-2.64,6.32-5.44,9.28-8.37,.96-.87,1.73-1.98,2.41-3.1,0,0,.22-.33,.22-.33l.06-.08c-.07,.06-.16,.19-.2,.35-.11,.43,.12,.71,.14,.73,.1,.12,.01,.06-.05,.05l-.26-.09-.65-.21c-10-2.26-20.61-1.25-30.69,.52-24.66,4.62-47.06,18.32-63.58,37.14,21.46-25.64,54.6-42.48,88.45-40.66,1.63,.19,10.41,.5,8.25,3.51-1.21,.86-2.51,1.68-3.51,2.76-15.09,14.37-33.58,25.95-54.12,30.38-7.15,1.42-14.78,2.06-21.78-.41-1.02-.32-2-.61-3.38-.52l1.23-2h0Z"/>
            <path d="M330.18,266.41c1.15-1.49,2.08-4.2,2.97-5.89,2.85-5.93,6-11.71,9.42-17.33,13.04-20.98,34.06-47.74,61.71-44.25-7.69,10.86-15.22,22.04-24.88,31.26-1.4,1.22-2.86,2.45-4.6,3.14,3.4-1.57,5.91-4.53,8.43-7.22,2.48-2.78,4.8-5.7,7.05-8.67,4.5-5.94,8.72-12.1,12.71-18.38,0,0,.37,.77,.37,.77-31.05-2.3-53.57,30.91-66.76,55.07-1.51,2.8-3.03,5.91-4.4,8.8-.45,.99-.98,1.96-1.1,3.09l-.92-.39h0Z"/>
          </g>
        </g>
      </g>
      <g>
        <g id="_Repetición_de_espejo_-3" data-name="&amp;lt;Repetición de espejo&amp;gt;">
          <g class="cls-9">
            <path d="M382.71,158.14c-2.56,4.48-7.31,7.11-11.24,10.24-10.91,7.87-23,17.86-23.79,32.31-.08,.91-.08,1.9-.05,2.81,0,.16-.04,.31-.1,.47-.05,.08-.02,.16-.13,.24,0,.08,.02,.16,.08,.23l-.5,.03c.17-.28,0-.22-.07-.48-.18-.28-.12-1.12-.14-1.44-.03-.64,.05-1.28,.08-1.93,.88-14.67,13.16-24.81,24.28-32.71,3.93-3.04,8.67-5.58,11.26-9.93,0,0,.32,.15,.32,.15h0Z"/>
          </g>
        </g>
        <g id="_Repetición_de_espejo_-4" data-name="&amp;lt;Repetición de espejo&amp;gt;">
          <g class="cls-21">
            <path d="M379.97,156.85c-1.71,4.77-.66,10.04-.51,15,1.09,14.19,.8,31.08-11.24,40.82,0,0-.75,.6-.75,.6-.12,.1-.28,.16-.45,.21-.09,.01-.14,.08-.27,.04-.06,.05-.11,.11-.14,.21l-.3-.41c.1,0,.17-.04,.23-.08,0-.14,.07-.17,.1-.26,.08-.15,.18-.29,.3-.38,.73-.56,1.49-1.18,2.14-1.82,10.65-9.8,10.67-25.47,9.81-38.9-.08-5.03-1.08-10.36,.75-15.19,0,0,.32,.15,.32,.15h0Z"/>
          </g>
        </g>
      </g>
    </g>
    <g id="Texto">
      <text class="cls-1" transform="translate(97.42 512.53)"><tspan class="cls-10" x="0" y="0">V</tspan><tspan x="44.38" y="0">inos</tspan></text>
      <text class="cls-3" transform="translate(96.97 596.27)"><tspan x="0" y="0">Del </tspan><tspan class="cls-7" x="190.19" y="0">V</tspan><tspan x="258.21" y="0">alle</tspan></text>
      <text class="cls-24" transform="translate(76.45 632.42)"><tspan x="0" y="0">-RESPON</tspan><tspan class="cls-15" x="86.74" y="0">S</tspan><tspan x="99.71" y="0">ABLES DE </tspan><tspan class="cls-23" x="200.51" y="0">L</tspan><tspan x="211.97" y="0">O QUE SE HA CU</tspan><tspan class="cls-19" x="370.84" y="0">L</tspan><tspan x="381.37" y="0">TI</tspan><tspan class="cls-16" x="398.15" y="0">V</tspan><tspan x="409.59" y="0">ADO -</tspan></text>
    </g>
  </g>
  <g id="Logo2">
    <rect class="cls-6" x="729.32" y="291.76" width="962.17" height="317.74"/>
    <g id="Logo-2" data-name="Logo">
      <g>
        <circle class="cls-5" cx="801.1" cy="514.52" r="31.91"/>
        <path d="M831.46,525.86c-10.29,27.39-48.56,29.3-61.43,2.83-8.26-16.83-.38-37.94,16.9-45.24,27.06-11.55,54.72,14.97,44.53,42.41h0Zm-.94-.35c6.04-15.89-2.62-34.21-18.79-39.46-15.13-5.34-32.9,3.19-38.16,18.2-5.86,14.79,1.97,32.87,16.9,38.76,15.65,6.63,34.2-1.53,40.06-17.49h0Z"/>
      </g>
      <g>
        <circle class="cls-5" cx="786.52" cy="464.09" r="31.91"/>
        <path d="M816.88,475.43c-10.29,27.39-48.56,29.3-61.43,2.83-8.26-16.83-.38-37.94,16.9-45.24,27.06-11.55,54.72,14.97,44.53,42.41h0Zm-.94-.35c6.04-15.89-2.62-34.21-18.79-39.46-15.13-5.34-32.9,3.19-38.16,18.2-5.86,14.79,1.97,32.87,16.9,38.76,15.65,6.63,34.2-1.53,40.06-17.49h0Z"/>
      </g>
      <g>
        <circle class="cls-5" cx="844.47" cy="484.44" r="31.91"/>
        <path d="M874.83,495.78c-10.29,27.39-48.56,29.3-61.43,2.83-8.26-16.83-.38-37.94,16.9-45.24,27.06-11.55,54.72,14.97,44.53,42.41h0Zm-.94-.35c6.04-15.89-2.62-34.21-18.79-39.46-15.13-5.34-32.9,3.19-38.16,18.2-5.86,14.79,1.97,32.87,16.9,38.76,15.65,6.63,34.2-1.53,40.06-17.49h0Z"/>
      </g>
      <g>
        <circle class="cls-5" cx="785.47" cy="418.71" r="31.91"/>
        <path d="M815.83,430.05c-10.29,27.39-48.56,29.3-61.43,2.83-8.26-16.83-.38-37.94,16.9-45.24,27.06-11.55,54.72,14.97,44.53,42.41h0Zm-.94-.35c6.04-15.89-2.62-34.21-18.79-39.46-15.13-5.34-32.9,3.19-38.16,18.2-5.86,14.79,1.97,32.87,16.9,38.76,15.65,6.63,34.2-1.53,40.06-17.49h0Z"/>
      </g>
      <g>
        <circle class="cls-5" cx="874.58" cy="451.99" r="31.91"/>
        <path d="M904.94,463.33c-10.29,27.39-48.56,29.3-61.43,2.83-8.26-16.83-.38-37.94,16.9-45.24,27.06-11.55,54.72,14.97,44.53,42.41h0Zm-.94-.35c6.04-15.89-2.62-34.21-18.79-39.46-15.13-5.34-32.9,3.19-38.16,18.2-5.86,14.79,1.97,32.87,16.9,38.76,15.65,6.63,34.2-1.53,40.06-17.49h0Z"/>
      </g>
      <g>
        <circle class="cls-5" cx="830.24" cy="434.79" r="34.32"/>
        <path d="M862.85,446.97c-11.05,29.39-52.11,31.4-65.88,2.99-8.82-18.02-.38-40.6,18.09-48.43,29.01-12.43,58.71,16,47.79,45.44h0Zm-.94-.35c6.51-17.11-2.8-36.86-20.2-42.56-16.33-5.81-35.57,3.38-41.26,19.61-6.33,15.99,2.16,35.54,18.31,41.86,16.88,7.1,36.85-1.71,43.16-18.9h0Z"/>
      </g>
      <g>
        <g id="_Repetición_de_espejo_-5" data-name="&amp;lt;Repetición de espejo&amp;gt;">
          <g class="cls-14">
            <path d="M837.22,392.37c-.83-1.52-2.31-1.95-3.67-2.78-3.63-2.33-6.38-5.82-8.71-9.38-6.13-9.69-9.27-21-10.51-32.33-.29-2.84-.47-5.7-.49-8.56,.08-.98-.23-2-.48-2.97-.04-.2,0-.34,.14-.63,.3-.46,.76-.52,.9-.53,.53-.02,.64,.06,1,.17,1.56,.8,2.85,1.96,4.09,3.04,8.51,7.87,14.59,18.03,18.34,28.91,3.71,10.87,4.81,22.51,3.67,33.84,.8-11.36-.65-22.89-4.62-33.5-3.95-10.5-10.25-20.36-18.71-27.73-1.19-.98-2.37-1.95-3.67-2.59-.05-.03-.11-.06-.13-.08-.01-.03-.07-.03,.12-.05,.05,0,.42-.04,.67-.43,.12-.2,.13-.35,.12-.43,0,0-.02,.07-.02,.07l-.07,.26c-.29,.86-.57,1.76-.52,2.64-.04,2.84,.07,5.67,.3,8.5,.96,11.27,4.15,22.55,10.2,32.17,2.28,3.58,5.06,6.89,8.55,9.33,.85,.62,1.8,1.22,2.89,1.24,.38-.04,.77-.16,1.17-.45l-.57,2.27h0Z"/>
            <path d="M840.87,401.46c.59-.55,.79-1.28,1.06-1.97l.77-2.1c3.44-9.81,5.99-20.03,6.73-30.41,.86-11.54-1.02-24.53-10.2-32.44,0,0,.81-.28,.81-.28-.62,2.45-1.16,4.94-1.67,7.42-1.01,4.97-1.85,9.99-2.26,15.05-.13,2.51-.38,5.13,.45,7.55-1.47-4.89-.39-10.17,.07-15.16,.67-5.05,1.49-10.07,2.43-15.08l.15-.79s.66,.52,.66,.52c14.49,11.98,11.33,34.73,7.32,50.96-1.12,4.34-2.46,8.63-4,12.84,0,0-.79,2.1-.79,2.1-.26,.7-.61,1.36-.6,2.19l-.92-.39h0Z"/>
          </g>
        </g>
        <g id="_Repetición_de_espejo_-6" data-name="&amp;lt;Repetición de espejo&amp;gt;">
          <g class="cls-22">
            <path d="M851.64,397.75c1.62-.6,3.03,.04,4.59,.3,4.27,.62,8.63-.21,12.73-1.38,10.98-3.3,20.77-9.79,29.13-17.53,2.09-1.96,4.09-4,5.98-6.15,.59-.79,1.49-1.36,2.31-1.93,.16-.12,.23-.26,.3-.57,.08-.55-.23-.89-.33-.99-.38-.36-.52-.37-.87-.53-1.71-.41-3.44-.38-5.09-.38-11.58,.36-22.84,4.05-32.8,9.81-9.93,5.78-18.38,13.85-24.95,23.15,6.84-9.1,15.49-16.86,25.45-22.27,9.87-5.34,21.08-8.66,32.31-8.67,1.54,.03,3.06,.08,4.47,.45,.06,.01,.12,.02,.15,.02,.03-.01,.08,.02-.06-.11-.03-.04-.29-.3-.23-.76,.04-.22,.13-.35,.19-.41,0,0-.03,.06-.03,.06l-.12,.24c-.34,.84-.72,1.7-1.34,2.33-1.83,2.17-3.77,4.24-5.8,6.22-8.11,7.89-17.92,14.31-28.79,17.61-4.07,1.21-8.33,1.89-12.57,1.44-1.05-.09-2.16-.26-2.99-.96-.26-.28-.48-.63-.59-1.11l-1.06,2.09h0Z"/>
            <path d="M842.93,402.23c-.09-.8,.25-1.48,.49-2.18l.8-2.09c3.83-9.66,8.61-19.05,14.85-27.38,6.91-9.28,16.85-17.86,28.97-17.81,0,0-.43-.74-.43-.74-1.14,2.26-2.36,4.49-3.61,6.7-2.49,4.42-5.15,8.76-8.16,12.85-1.55,1.98-3.08,4.12-5.29,5.4,4.31-2.72,6.96-7.43,9.88-11.49,2.8-4.25,5.47-8.58,8.05-12.98l.41-.7s-.84-.04-.84-.04c-18.8-.45-31.32,18.8-38.93,33.69-2,4.02-3.8,8.13-5.39,12.32,0,0-.78,2.1-.78,2.1-.26,.7-.43,1.43-.98,2.04l.95,.31h0Z"/>
          </g>
        </g>
      </g>
      <g>
        <g id="_Repetición_de_espejo_-7" data-name="&amp;lt;Repetición de espejo&amp;gt;">
          <g class="cls-11">
            <path d="M871.7,325.48c-1.48,3.21-4.55,5.28-7.05,7.64-7.41,6.29-15.53,14.6-14.11,25.12,.01,.1-.03,.22-.08,.33-.04,.06,0,.11-.12,.18,0,.05,.03,.1,.09,.15,0,0-.5,.07-.5,.07,.05-.06,.07-.12,.06-.17-.14-.04-.28-.33-.3-.46-1.56-12.87,9.83-21.54,18.49-29.04,1.23-1.18,2.52-2.4,3.18-3.94,0,0,.33,.12,.33,.12h0Z"/>
          </g>
        </g>
        <g id="_Repetición_de_espejo_-8" data-name="&amp;lt;Repetición de espejo&amp;gt;">
          <g class="cls-12">
            <path d="M869.44,324.64c-.99,3.39-.02,6.97,.31,10.39,1.47,9.61,2.16,21.2-5.81,28.22-.08,.07-.12,.18-.16,.3,0,.07-.06,.09-.03,.21-.04,.04-.09,.06-.17,.05,0,0,.33,.38,.33,.38,0-.08,.03-.13,.07-.17,.13,.06,.43-.06,.53-.15,9.61-8.7,6.7-22.71,5.07-34.05-.16-1.7-.33-3.46,.18-5.06,0,0-.33-.12-.33-.12h0Z"/>
          </g>
        </g>
      </g>
    </g>
    <g id="Texto-2" data-name="Texto">
      <text class="cls-2" transform="translate(937.41 414.34)"><tspan class="cls-17" x="0" y="0">V</tspan><tspan x="75.94" y="0">inos</tspan></text>
      <text class="cls-4" transform="translate(936.63 557.62)"><tspan x="0" y="0">Del </tspan><tspan class="cls-8" x="325.42" y="0">V</tspan><tspan x="441.8" y="0">alle</tspan></text>
    </g>
  </g>
</svg>